<svg width="26" height="21" fill="none" xmlns="http://www.w3.org/2000/svg"><g clip-path="url(#clip0)"><path d="M25.02 12V6.333c0-5 0-5-6.52-5H7.23c-1.06 0-1.921.747-1.921 1.667v3.333" stroke="#FFFCFC"/><path d="M25.02 11.333L25 15.5c0 4.167 0 4.167-5.5 4.167H7.231c-1.062 0-1.923-.747-1.923-1.667v-3.333" stroke="#FFFCFC"/><path d="M20.07 10.795a.379.379 0 000-.59l-3.059-2.651a.534.534 0 00-.68 0 .379.379 0 000 .589l2.72 2.357-2.72 2.357a.379.379 0 000 .59.534.534 0 00.68 0l3.06-2.652zM.5 10.917h19.23v-.834H.5v.834z" fill="#fff"/></g><defs><clipPath id="clip0"><path fill="#fff" d="M.5.5h25v20H.5z"/></clipPath></defs></svg>